<svg width="40" height="41" viewBox="0 0 40 41" fill="none" xmlns="http://www.w3.org/2000/svg">
<path fill-rule="evenodd" clip-rule="evenodd" d="M2.35294 0.445312C1.05345 0.445312 0 1.44024 0 2.66754V39.4453C0 39.9976 0.447716 40.4453 1 40.4453H6.6145C6.85989 40.4453 7.05882 40.2464 7.05882 40.001V32.6675C7.05882 32.0539 7.58555 31.5564 8.23529 31.5564H12.9412C13.5909 31.5564 14.1176 32.0539 14.1176 32.6675V40.001C14.1176 40.2464 14.3166 40.4453 14.562 40.4453H21.1765V2.66753C21.1765 1.44024 20.123 0.445312 18.8235 0.445312H2.35294ZM4.70588 6.00087C4.70588 5.38722 5.23261 4.88976 5.88235 4.88976H8.23529C8.88504 4.88976 9.41176 5.38722 9.41176 6.00087V8.22309C9.41176 8.83674 8.88504 9.3342 8.23529 9.3342H5.88235C5.23261 9.3342 4.70588 8.83674 4.70588 8.22309V6.00087ZM5.88235 11.5564C5.23261 11.5564 4.70588 12.0539 4.70588 12.6675V14.8898C4.70588 15.5034 5.23261 16.0009 5.88235 16.0009H8.23529C8.88504 16.0009 9.41176 15.5034 9.41176 14.8898V12.6675C9.41176 12.0539 8.88504 11.5564 8.23529 11.5564H5.88235ZM4.70588 19.3342C4.70588 18.7206 5.23261 18.2231 5.88235 18.2231H8.23529C8.88504 18.2231 9.41176 18.7206 9.41176 19.3342V21.5564C9.41176 22.1701 8.88504 22.6675 8.23529 22.6675H5.88235C5.23261 22.6675 4.70588 22.1701 4.70588 21.5564V19.3342ZM12.9412 4.88976C12.2914 4.88976 11.7647 5.38722 11.7647 6.00087V8.22309C11.7647 8.83674 12.2914 9.3342 12.9412 9.3342H15.2941C15.9439 9.3342 16.4706 8.83674 16.4706 8.22309V6.00087C16.4706 5.38722 15.9439 4.88976 15.2941 4.88976H12.9412ZM11.7647 12.6675C11.7647 12.0539 12.2914 11.5564 12.9412 11.5564H15.2941C15.9439 11.5564 16.4706 12.0539 16.4706 12.6675V14.8898C16.4706 15.5034 15.9439 16.0009 15.2941 16.0009H12.9412C12.2914 16.0009 11.7647 15.5034 11.7647 14.8898V12.6675ZM12.9412 18.2231C12.2914 18.2231 11.7647 18.7206 11.7647 19.3342V21.5564C11.7647 22.1701 12.2914 22.6675 12.9412 22.6675H15.2941C15.9439 22.6675 16.4706 22.1701 16.4706 21.5564V19.3342C16.4706 18.7206 15.9439 18.2231 15.2941 18.2231H12.9412Z" fill="#3258E8"/>
<path fill-rule="evenodd" clip-rule="evenodd" d="M37.6407 5.15137H21.1765V40.4383H26.6122C26.8576 40.4383 27.0565 40.2394 27.0565 39.994V33.822C27.0565 33.213 27.5831 32.7193 28.2326 32.7193H32.9366C33.5861 32.7193 34.1126 33.213 34.1126 33.822V39.994C34.1126 40.2394 34.3115 40.4383 34.5569 40.4383H37.6407C40.2548 40.4383 39.9927 40.6887 39.9927 38.2329V7.3568C39.9927 6.13877 38.9396 5.15137 37.6407 5.15137ZM25.8805 8.45952C25.231 8.45952 24.7045 8.95322 24.7045 9.56223V11.7677C24.7045 12.3767 25.231 12.8704 25.8805 12.8704H28.2326C28.882 12.8704 29.4086 12.3767 29.4086 11.7677V9.56223C29.4086 8.95322 28.882 8.45952 28.2326 8.45952H25.8805ZM24.7045 16.1785C24.7045 15.5695 25.231 15.0758 25.8805 15.0758H28.2326C28.882 15.0758 29.4086 15.5695 29.4086 16.1785V18.384C29.4086 18.993 28.882 19.4867 28.2326 19.4867H25.8805C25.231 19.4867 24.7045 18.993 24.7045 18.384V16.1785ZM25.8805 21.6921C25.231 21.6921 24.7045 22.1858 24.7045 22.7948V25.0003C24.7045 25.6093 25.231 26.103 25.8805 26.103H28.2326C28.882 26.103 29.4086 25.6093 29.4086 25.0003V22.7948C29.4086 22.1858 28.882 21.6921 28.2326 21.6921H25.8805ZM32.9366 8.45952C32.2871 8.45952 31.7606 8.95322 31.7606 9.56223V11.7677C31.7606 12.3767 32.2871 12.8704 32.9366 12.8704H35.2886C35.9381 12.8704 36.4646 12.3767 36.4646 11.7677V9.56223C36.4646 8.95322 35.9381 8.45952 35.2886 8.45952H32.9366ZM31.7606 16.1785C31.7606 15.5695 32.2871 15.0758 32.9366 15.0758H35.2886C35.9381 15.0758 36.4646 15.5695 36.4646 16.1785V18.384C36.4646 18.993 35.9381 19.4867 35.2886 19.4867H32.9366C32.2871 19.4867 31.7606 18.993 31.7606 18.384V16.1785ZM32.9366 21.6921C32.2871 21.6921 31.7606 22.1858 31.7606 22.7948V25.0003C31.7606 25.6093 32.2871 26.103 32.9366 26.103H35.2886C35.9381 26.103 36.4646 25.6093 36.4646 25.0003V22.7948C36.4646 22.1858 35.9381 21.6921 35.2886 21.6921H32.9366Z" fill="#FEB137"/>
</svg>
