<svg width="24" height="25" viewBox="0 0 24 25" fill="none" xmlns="http://www.w3.org/2000/svg">
<path fill-rule="evenodd" clip-rule="evenodd" d="M6.54553 4.31819V2.5H8.04553V4.31819H15.7878V2.5H17.2878V4.31819H18.3636C20.3719 4.31819 22 5.94625 22 7.95456V10.2273V11.5909V18.8636C22 20.872 20.3719 22.5 18.3636 22.5H5.63636C3.62806 22.5 2 20.872 2 18.8636V11.5909V10.2273V7.95455C2 5.94625 3.62806 4.31819 5.63636 4.31819H6.54553ZM6.54553 5.68183H5.63636C4.38117 5.68183 3.36364 6.69936 3.36364 7.95455V10.2273H20.6364V7.95456C20.6364 6.69936 19.6188 5.68183 18.3636 5.68183H17.2878V7.95455H15.7878V5.68183H8.04553V7.95455H6.54553V5.68183ZM20.6364 18.8636V11.5909H3.36364V18.8636C3.36364 20.1188 4.38117 21.1364 5.63636 21.1364H18.3636C19.6188 21.1364 20.6364 20.1188 20.6364 18.8636Z" fill="#848484"/>
</svg>
