<svg width="48" height="35" viewBox="0 0 48 35" fill="none" xmlns="http://www.w3.org/2000/svg">
<ellipse cx="36" cy="13.0696" rx="12" ry="12.1429" fill="#FEB137"/>
<path fill-rule="evenodd" clip-rule="evenodd" d="M43.0254 22.915C46.0391 20.7092 48 17.1211 48 13.0696C48 6.3633 42.6274 0.926758 36 0.926758C32.019 0.926758 28.4909 2.88833 26.3079 5.9084C28.2827 4.46294 30.7097 3.61096 33.3333 3.61096C39.9607 3.61096 45.3333 9.0475 45.3333 15.7538C45.3333 18.4318 44.4766 20.9073 43.0254 22.915Z" fill="#FEB137"/>
<path fill-rule="evenodd" clip-rule="evenodd" d="M30 13.0698C30 13.0698 30 13.0698 30 13.0698C30 7.7047 25.702 3.35547 20.4 3.35547C15.0981 3.35547 10.8 7.7047 10.8 13.0698C10.8 13.1075 10.8002 13.1451 10.8007 13.1827C7.38977 13.7898 4.80005 16.7702 4.80005 20.3555C4.80005 20.5 4.80426 20.6435 4.81255 20.7859C2.00612 21.7986 0 24.4856 0 27.6411C0 31.6649 3.26193 34.9269 7.28572 34.9269H35.9143C39.9381 34.9269 43.2 31.6649 43.2 27.6411C43.2 24.4856 41.1939 21.7986 38.3875 20.786C38.3958 20.6435 38.4 20.5 38.4 20.3555C38.4 16.3317 35.1381 13.0698 31.1143 13.0698H30Z" fill="#3258E8"/>
<path fill-rule="evenodd" clip-rule="evenodd" d="M31.1143 13.0698L30 13.0698C30 7.7047 25.702 3.35547 20.4 3.35547C17.6479 3.35547 15.1663 4.52732 13.4159 6.40482C14.4683 6.00358 15.6088 5.78406 16.8 5.78406C22.1019 5.78406 26.4 10.1333 26.4 15.4983V15.4984H27.5142C31.538 15.4984 34.8 18.7603 34.8 22.7841C34.8 22.9286 34.7957 23.0722 34.7874 23.2146C37.5939 24.2272 39.6 26.9142 39.6 30.0698C39.6 31.7928 39.0019 33.3761 38.002 34.6234C41.0084 33.7257 43.2 30.9394 43.2 27.6412C43.2 24.4856 41.1939 21.7987 38.3875 20.786C38.3958 20.6435 38.4 20.5 38.4 20.3555C38.4 16.3317 35.1381 13.0698 31.1143 13.0698ZM6.39801 15.8019C6.65968 15.7238 6.92751 15.66 7.20062 15.6114C7.20019 15.5737 7.19998 15.5361 7.19998 15.4983C7.19998 15.3097 7.20529 15.1224 7.21577 14.9365C6.92033 15.2021 6.64674 15.4916 6.39801 15.8019Z" fill="#2042BE"/>
</svg>
