<svg width="32" height="47" viewBox="0 0 32 47" fill="none" xmlns="http://www.w3.org/2000/svg">
<circle cx="12.0337" cy="9.44551" r="6.3" fill="#FEB137"/>
<circle cx="12.0337" cy="9.44531" r="8.5" stroke="#FEB137"/>
<path d="M12.4269 6.94531C10.9562 6.94531 9.76401 8.13754 9.76401 9.60823V22.9228V29.1363L5.02337 24.3957C4.17826 23.5506 2.84033 23.4555 1.8842 24.1726C0.837684 24.9575 0.611819 26.4356 1.37617 27.4972L7.98873 36.6813C7.98873 36.6813 8.43255 38.9004 13.7584 41.1195V45.5577C13.7584 46.0479 14.1558 46.4453 14.646 46.4453H17.7528H20.8595H23.0786H28.4045C28.8947 46.4453 29.2921 46.0479 29.2921 45.5577V41.1195C30.1797 38.9004 31.0674 36.6813 31.0674 34.0183V21.1476C31.0674 19.6769 29.8752 18.4846 28.4045 18.4846C26.9338 18.4846 25.7415 19.6769 25.7415 21.1476V19.3723C25.7415 17.9016 24.5493 16.7094 23.0786 16.7094C21.6079 16.7094 20.4157 17.9016 20.4157 19.3723V18.4846C20.4157 17.0139 19.2235 15.8217 17.7528 15.8217C16.2821 15.8217 15.0899 17.0139 15.0899 18.4846V9.60823C15.0899 8.13754 13.8976 6.94531 12.4269 6.94531Z" fill="#3258E8"/>
</svg>
